<svg version="1.1" id="Layer_1" xmlns="http://www.w3.org/2000/svg" xmlns:xlink="http://www.w3.org/1999/xlink" x="0px" y="0px" width="1200px" height="1200px" viewBox="0 0 1200 1200" enable-background="new 0 0 1200 1200" xml:space="preserve">
<g>
	<path fill="#EE7723" d="M973.793,530.682c0-255.09-206.803-461.893-461.893-461.893C256.802,68.789,50,275.591,50,530.682&#10;&#9;&#9;c0,255.098,206.802,461.9,461.9,461.9C766.99,992.582,973.793,785.78,973.793,530.682z" style="fill: rgb(37, 239, 198);"/>
	<g>
		<defs>
			<path id="SVGID_1_" d="M973.793,530.682c0-255.09-206.803-461.893-461.893-461.893C256.802,68.789,50,275.591,50,530.682&#10;&#9;&#9;&#9;&#9;c0,255.098,206.802,461.9,461.9,461.9C766.99,992.582,973.793,785.78,973.793,530.682z"/>
		</defs>
		<clipPath id="SVGID_2_">
			<use xlink:href="#SVGID_1_" overflow="visible"/>
		</clipPath>
		<linearGradient id="SVGID_3_" gradientUnits="userSpaceOnUse" x1="1243.438" y1="1287.0149" x2="657.8243" y2="701.395">
			<stop offset="0" style="stop-color:#FFFFFF"/>
			<stop offset="0.0718" style="stop-color:#EBE6DF"/>
			<stop offset="0.2156" style="stop-color:#C7B8A5"/>
			<stop offset="0.3593" style="stop-color:#A79072"/>
			<stop offset="0.4998" style="stop-color:#8E7049"/>
			<stop offset="0.6362" style="stop-color:#7A5729"/>
			<stop offset="0.7674" style="stop-color:#6C4512"/>
			<stop offset="0.8912" style="stop-color:#633A05"/>
			<stop offset="1" style="stop-color:#603600"/>
		</linearGradient>
		<polygon opacity="0.5" clip-path="url(#SVGID_2_)" fill="url(#SVGID_3_)" points="291.074,728.75 656.527,1109.518 &#10;&#9;&#9;&#9;1133.734,1131.211 1150,784.156 558.019,269.341 477.587,398.933 453.776,431.674 448.694,552.709 364.766,550.93 &#10;&#9;&#9;&#9;351.803,621.765 355.573,645.927 345.026,663.558 &#9;&#9;"/>
	</g>
	<g>
		<path fill="#FFFFFF" d="M732.373,728.387c-0.359-5.293-1.071-10.706-2.628-16.385c-7.666-28.077-12.771-30.235-14.042-70.197&#10;&#9;&#9;&#9;c-1.271-39.962-1.271-59.387-11.481-82.074c-10.242-22.687,2.54-29.175-7.692-55.102c-10.231-25.905-12.771-43.18-23.013-49.667&#10;&#9;&#9;&#9;c-10.22-6.458-62.65-7.548-113.804-31.303v-14.057c0,0,24.326-36.7,14.076-58.305c0,0-2.532-18.365,2.572-23.77&#10;&#9;&#9;&#9;c0,0,1.272-56.162-28.129-65.874c0,0-70.286-18.38-97.154,19.439c0,0-19.181,22.68-14.057,59.38c0,0,5.115,29.167,19.173,37.834&#10;&#9;&#9;&#9;c0,0,15.347,26.98,8.937,34.535l-33.234,29.182c0,0-69.037,21.59-81.819,22.665c0,0-8.941-4.322-11.491,20.545&#10;&#9;&#9;&#9;c-2.543,24.815-8.942,58.297-23.006,100.416c-14.064,42.134-2.561,32.4-14.064,66.957c-5.127,15.399-8.727,45.367-11.122,75.779&#10;&#9;&#9;&#9;h80.484v-148.03c0-8.2,6.684-14.858,14.965-14.858h97.04c-2.224-10.105-30.164-137.799-21.586-144.004&#10;&#9;&#9;&#9;c0,0,31.962,23.747,47.321,27.01c0,0,46.008-12.982,49.845-19.47c0,0,12.793,85.314-8.941,128.531&#10;&#9;&#9;&#9;c0,0-16.627-68.055-26.839-75.602l11.481-3.24l-24.274-23.762l-16.63,18.364l8.972,9.735c0,0-21.287,59.283-19.232,82.438h164.345&#10;&#9;&#9;&#9;c8.326,0,15.018,6.658,15.018,14.858v148.03H732.373z"/>
		<path fill="#FFFFFF" d="M632.346,585.057H401.329c-7.329,0-13.219,5.879-13.219,13.13v132.572c0,7.251,5.891,13.123,13.219,13.123&#10;&#9;&#9;&#9;h231.017c7.333,0,13.264-5.872,13.264-13.123V598.187C645.61,590.936,639.679,585.057,632.346,585.057z"/>
	</g>
</g>
</svg>